<svg id="Layer_1" data-name="Layer 1" xmlns="http://www.w3.org/2000/svg" xmlns:xlink="http://www.w3.org/1999/xlink" viewBox="0 0 280 300"><defs><style>.cls-1{fill:#3d4144;}.cls-2{fill:url(#linear-gradient);}.cls-3{fill:none;}.cls-4{fill:#fff;}</style><linearGradient id="linear-gradient" x1="-130.02" y1="-126.48" x2="-129.71" y2="-126.48" gradientTransform="translate(-11635.44 12175.73) rotate(90) scale(92.6)" gradientUnits="userSpaceOnUse"><stop offset="0" stop-color="#ba6aab"/><stop offset="1" stop-color="#78489c"/></linearGradient></defs><title>apple podcast logo</title><path class="cls-1" d="M104.3,151.36H99.55l-1.14,3.37h-2l4.5-12.46H103l4.49,12.46h-2ZM100,149.8h3.77L102,144.34h0L100,149.8Zm17.38.38c0,2.83-1.51,4.64-3.79,4.64a3.07,3.07,0,0,1-2.85-1.59h0v4.5h-1.86V145.64h1.8v1.51h0a3.21,3.21,0,0,1,2.89-1.6c2.3,0,3.82,1.82,3.82,4.63Zm-1.91,0c0-1.83-1-3-2.4-3s-2.38,1.23-2.38,3,1,3.06,2.38,3.06S115.51,152,115.51,150.18Zm12,0c0,2.83-1.51,4.64-3.79,4.64a3.09,3.09,0,0,1-2.86-1.59h0v4.5h-1.86V145.64h1.8v1.51h0a3.24,3.24,0,0,1,2.9-1.6c2.3,0,3.82,1.82,3.82,4.63Zm-1.91,0c0-1.83-1-3-2.4-3s-2.39,1.23-2.39,3,1,3.06,2.39,3.06S125.58,152,125.58,150.18Zm3.49-7.91h1.87v12.46h-1.87Zm12,9.79c-.25,1.65-1.86,2.78-3.92,2.78-2.64,0-4.28-1.77-4.28-4.61s1.65-4.7,4.21-4.7,4.09,1.73,4.09,4.48v.64h-6.42v.11a2.37,2.37,0,0,0,2.45,2.58,2.06,2.06,0,0,0,2.09-1.28Zm-6.31-2.71h4.55A2.2,2.2,0,0,0,137,147a2.31,2.31,0,0,0-2.32,2.31Zm17-7.08a3.9,3.9,0,0,1,4.1,4.09,4,4,0,0,1-4.16,4.11H149v4.25h-1.93V142.27ZM149,148.85h2.22a2.48,2.48,0,1,0,0-4.95H149v4.95Zm7.72,1.33c0-2.85,1.68-4.65,4.3-4.65s4.31,1.8,4.31,4.65-1.66,4.66-4.31,4.66S156.74,153.05,156.74,150.18Zm6.71,0c0-2-.89-3.11-2.41-3.11s-2.4,1.16-2.4,3.11.89,3.12,2.4,3.12S163.45,152.15,163.45,150.18Zm3.19,0c0-2.8,1.55-4.63,3.8-4.63a3.06,3.06,0,0,1,2.85,1.6h0v-4.88h1.87v12.46h-1.82v-1.55h0a3.08,3.08,0,0,1-2.89,1.64c-2.27,0-3.82-1.83-3.82-4.64Zm1.91,0c0,1.87.95,3.06,2.4,3.06s2.39-1.21,2.39-3.06-1-3-2.39-3S168.55,148.34,168.55,150.18Zm14.74-1.41a2,2,0,0,0-2.14-1.68c-1.43,0-2.38,1.2-2.38,3.09s1,3.1,2.4,3.1a2,2,0,0,0,2.12-1.63h1.8a3.64,3.64,0,0,1-3.94,3.19c-2.59,0-4.28-1.77-4.28-4.66s1.69-4.65,4.26-4.65a3.65,3.65,0,0,1,3.94,3.24Zm3,3.36c0-1.59,1.22-2.52,3.48-2.66l2.41-.14v-.69c0-1-.68-1.58-1.86-1.58a1.7,1.7,0,0,0-1.84,1.28h-1.74c.05-1.63,1.57-2.81,3.63-2.81,2.23,0,3.67,1.17,3.67,3v6.23h-1.79v-1.5h0a3.23,3.23,0,0,1-2.87,1.63,2.77,2.77,0,0,1-3-2.73Zm5.89-.81v-.7l-2.17.14c-1.21.07-1.85.54-1.85,1.32s.67,1.3,1.7,1.3a2.15,2.15,0,0,0,2.32-2.06Zm7.31-5.78c2,0,3.46,1.11,3.5,2.72h-1.75c-.08-.8-.76-1.3-1.8-1.3s-1.68.47-1.68,1.18c0,.54.45.9,1.39,1.14l1.53.35c1.83.44,2.52,1.11,2.52,2.44,0,1.64-1.56,2.77-3.78,2.77s-3.58-1.1-3.72-2.76h1.85c.13.87.83,1.34,2,1.34s1.82-.46,1.82-1.18-.35-.87-1.3-1.11l-1.62-.4c-1.64-.39-2.47-1.23-2.47-2.49,0-1.6,1.44-2.7,3.55-2.7Zm7.83-2v2.15H209v1.48H207.3v5c0,.77.35,1.14,1.11,1.14a4.84,4.84,0,0,0,.61-.05v1.47a5.25,5.25,0,0,1-1,.09c-1.83,0-2.55-.69-2.55-2.46v-5.2h-1.32v-1.48h1.32v-2.15Zm6.73,2c2,0,3.45,1.11,3.5,2.72h-1.75c-.08-.8-.76-1.3-1.8-1.3s-1.68.47-1.68,1.18c0,.54.44.9,1.39,1.14l1.52.35c1.83.44,2.52,1.11,2.52,2.44,0,1.64-1.55,2.77-3.77,2.77s-3.58-1.1-3.72-2.76h1.85c.13.87.83,1.34,2,1.34s1.81-.46,1.81-1.18-.34-.87-1.29-1.11l-1.63-.4c-1.64-.39-2.47-1.23-2.47-2.49C210.47,146.64,211.91,145.54,214,145.54Z"/><path class="cls-2" d="M90.82,160.68a6.14,6.14,0,0,1-3.92,3.51,12.49,12.49,0,0,1-3.51.37H70.28a12.52,12.52,0,0,1-3.52-.37,6.14,6.14,0,0,1-3.92-3.51,11.4,11.4,0,0,1-.57-4.13v-13.1a11.4,11.4,0,0,1,.57-4.13,6.14,6.14,0,0,1,3.92-3.51,12.52,12.52,0,0,1,3.52-.37h13.1a12.52,12.52,0,0,1,3.52.37,6.14,6.14,0,0,1,3.92,3.51,11.4,11.4,0,0,1,.57,4.13v13.1A11.19,11.19,0,0,1,90.82,160.68Z"/><path class="cls-3" d="M90.82,160.68a6.14,6.14,0,0,1-3.92,3.51,12.49,12.49,0,0,1-3.51.37H70.28a12.52,12.52,0,0,1-3.52-.37,6.14,6.14,0,0,1-3.92-3.51,11.4,11.4,0,0,1-.57-4.13v-13.1a11.4,11.4,0,0,1,.57-4.13,6.14,6.14,0,0,1,3.92-3.51,12.52,12.52,0,0,1,3.52-.37h13.1a12.52,12.52,0,0,1,3.52.37,6.14,6.14,0,0,1,3.92,3.51,11.4,11.4,0,0,1,.57,4.13v13.1A11.19,11.19,0,0,1,90.82,160.68Z"/><path class="cls-4" d="M78.94,152.18a2.9,2.9,0,0,0-2.11-.76,2.94,2.94,0,0,0-2.11.76,1.37,1.37,0,0,0-.39.84,11.14,11.14,0,0,0,0,2.2c.08.89.22,2.08.41,3.3a11.78,11.78,0,0,0,.34,1.66,1.94,1.94,0,0,0,3.4,0,11.78,11.78,0,0,0,.34-1.66c.19-1.22.34-2.41.41-3.3a11.14,11.14,0,0,0,0-2.2A1.32,1.32,0,0,0,78.94,152.18Zm-4.49-4.11a2.39,2.39,0,1,0,2.38-2.38A2.39,2.39,0,0,0,74.45,148.07Zm2.35-9.41a10.24,10.24,0,0,0-3.36,19.91.14.14,0,0,0,.18-.08.17.17,0,0,0,0-.07q-.09-.53-.15-1a.35.35,0,0,0-.21-.27,8.94,8.94,0,1,1,7.13,0,.36.36,0,0,0-.21.27q-.06.52-.15,1a.14.14,0,0,0,.12.16h.06a10.24,10.24,0,0,0-3.42-19.91Zm-.18,4.7a5.56,5.56,0,0,1,5.77,5.34v.21a5.51,5.51,0,0,1-1.75,4,.44.44,0,0,0-.14.34,11.51,11.51,0,0,1,0,1.17.13.13,0,0,0,.13.14l.08,0a6.86,6.86,0,0,0-3.87-12.53h-.26A6.86,6.86,0,0,0,73,154.58a.12.12,0,0,0,.18,0,.11.11,0,0,0,0-.08,9.14,9.14,0,0,1,0-1.17A.43.43,0,0,0,73,153a5.5,5.5,0,0,1-1.75-4.19A5.57,5.57,0,0,1,76.62,143.36Z"/></svg>