<svg id="Livello_7" data-name="Livello 7" xmlns="http://www.w3.org/2000/svg" viewBox="0 0 3360 1028.54"><defs><style>.cls-1{fill:#c1272d;}</style></defs><title>lock up</title><path class="cls-1" d="M2062.5,1202.37,2042,1300.8a8.55,8.55,0,0,1-8.37,6.8H1925.71a8.55,8.55,0,0,1-8.37-10.3l20.54-98.44a8.55,8.55,0,0,1,8.37-6.8h107.87A8.55,8.55,0,0,1,2062.5,1202.37Z" transform="translate(680 -485.73)"/><path class="cls-1" d="M1854.4,1202.37l-20.54,98.44a8.55,8.55,0,0,1-8.37,6.8h-112.6a8.55,8.55,0,0,1-8.37-10.3l20.54-98.44a8.55,8.55,0,0,1,8.37-6.8H1846A8.55,8.55,0,0,1,1854.4,1202.37Z" transform="translate(680 -485.73)"/><path class="cls-1" d="M1646.35,1202.37l-20.54,98.44a8.55,8.55,0,0,1-8.37,6.8H1500a8.55,8.55,0,0,1-8.37-10.3l20.54-98.44a8.55,8.55,0,0,1,8.37-6.8H1638A8.55,8.55,0,0,1,1646.35,1202.37Z" transform="translate(680 -485.73)"/><path class="cls-1" d="M1438.25,1202.37l-20.54,98.44a8.55,8.55,0,0,1-8.37,6.8H1287.15a8.55,8.55,0,0,1-8.37-10.3l20.54-98.44a8.55,8.55,0,0,1,8.37-6.8h122.18A8.55,8.55,0,0,1,1438.25,1202.37Z" transform="translate(680 -485.73)"/><path class="cls-1" d="M1230.2,1202.37l-20.54,98.44a8.55,8.55,0,0,1-8.37,6.8h-127a8.55,8.55,0,0,1-8.37-10.3l20.54-98.44a8.55,8.55,0,0,1,8.37-6.8h127A8.55,8.55,0,0,1,1230.2,1202.37Z" transform="translate(680 -485.73)"/><path class="cls-1" d="M1022.1,1202.37l-20.54,98.44a8.55,8.55,0,0,1-8.37,6.8H861.46a8.55,8.55,0,0,1-8.37-10.3l20.54-98.44a8.55,8.55,0,0,1,8.37-6.8h131.72A8.55,8.55,0,0,1,1022.1,1202.37Z" transform="translate(680 -485.73)"/><path class="cls-1" d="M814,1202.37,793.5,1300.8a8.55,8.55,0,0,1-8.37,6.8H648.59a8.55,8.55,0,0,1-8.37-10.3l20.54-98.44a8.55,8.55,0,0,1,8.37-6.8H805.67A8.55,8.55,0,0,1,814,1202.37Z" transform="translate(680 -485.73)"/><path class="cls-1" d="M605.95,1202.37,585.4,1300.8a8.55,8.55,0,0,1-8.37,6.8H435.77a8.55,8.55,0,0,1-8.37-10.3l20.54-98.44a8.55,8.55,0,0,1,8.37-6.8H597.58A8.55,8.55,0,0,1,605.95,1202.37Z" transform="translate(680 -485.73)"/><path class="cls-1" d="M397.85,1202.37,377.3,1300.8a8.55,8.55,0,0,1-8.37,6.8h-146a8.55,8.55,0,0,1-8.37-10.3l20.54-98.44a8.55,8.55,0,0,1,8.37-6.8h146A8.55,8.55,0,0,1,397.85,1202.37Z" transform="translate(680 -485.73)"/><path class="cls-1" d="M189.79,1202.37l-20.54,98.44a8.55,8.55,0,0,1-8.37,6.8H10a8.55,8.55,0,0,1-8.37-10.3l20.54-98.44a8.55,8.55,0,0,1,8.37-6.8H181.42A8.55,8.55,0,0,1,189.79,1202.37Z" transform="translate(680 -485.73)"/><path class="cls-1" d="M-18.3,1202.37l-20.54,98.44a8.55,8.55,0,0,1-8.37,6.8H-202.79a8.55,8.55,0,0,1-8.37-10.3l20.54-98.44a8.55,8.55,0,0,1,8.37-6.8H-26.67A8.55,8.55,0,0,1-18.3,1202.37Z" transform="translate(680 -485.73)"/><path class="cls-1" d="M-226.36,1202.37l-20.54,98.44a8.55,8.55,0,0,1-8.37,6.8H-671.45a8.55,8.55,0,0,1-8.37-10.27l157.53-765.4a8.55,8.55,0,0,1,8.37-6.83h120.83a8.55,8.55,0,0,1,8.37,10.28l-133.18,646.41a8.55,8.55,0,0,0,8.37,10.28h274.79A8.55,8.55,0,0,1-226.36,1202.37Z" transform="translate(680 -485.73)"/><path class="cls-1" d="M-215.84,818.77q17.93-51.2,51.64-89.72t81.84-60.83q48.13-22.32,108.53-22.32,46.38,0,85.34,11.82t67,35.45q28,23.63,43.33,59.52t15.32,84.9q0,59.53-17.94,111.6t-52.08,90.59q-34.14,38.53-82.71,60.4t-110.72,21.88q-94.53,0-151-48.58t-56.46-145.73Q-233.79,870-215.84,818.77Zm112,147.49a95.32,95.32,0,0,0,17.07,32.38,83.76,83.76,0,0,0,28,22.32q16.62,8.33,38.51,8.31,35,0,60-18.82a153.53,153.53,0,0,0,41.14-47.27,232,232,0,0,0,24.07-61.71q7.88-33.26,7.88-62.15,0-45.5-20.57-72.65T21.79,739.56q-34.13,0-59.08,18.82A150.21,150.21,0,0,0-78,805.21,235.55,235.55,0,0,0-101.62,866q-7.88,32.82-7.88,61.71A129.11,129.11,0,0,0-103.81,966.26Z" transform="translate(680 -485.73)"/><path class="cls-1" d="M590.28,757.07q-20.58-17.5-62.58-17.51-35,0-59.52,18.82a140,140,0,0,0-39.39,47.7,233.08,233.08,0,0,0-21.44,62.58q-6.56,33.7-6.56,62.58a159.73,159.73,0,0,0,4.38,38.08A78.85,78.85,0,0,0,420,1000.39a76.34,76.34,0,0,0,26.7,21q16.19,7.88,39.83,7.88,21,0,37.2-7a105.77,105.77,0,0,0,28.88-18.38,99.08,99.08,0,0,0,21-26.7,181,181,0,0,0,11.62-26.12,8.61,8.61,0,0,1,8.09-5.83h106.1a8.59,8.59,0,0,1,8,11.57q-28,76.52-82.19,119.29-58.22,46-147.49,46-95.41,0-148.36-46.83t-53-146.61q0-57.77,17.07-109t49.89-90.15a234.11,234.11,0,0,1,80.09-61.27q47.26-22.32,108.53-22.32a306.58,306.58,0,0,1,77.9,9.63q36.76,9.64,64.33,29.76t43.76,52.52q14.51,29,16.72,67.91a8.6,8.6,0,0,1-8.55,9.12H619.14a8.54,8.54,0,0,1-8.51-8.08Q608.72,772.77,590.28,757.07Z" transform="translate(680 -485.73)"/><path class="cls-1" d="M980.17,485.73A8.55,8.55,0,0,1,988.54,496L918.95,825.34l1.75,1.75L1096.78,660.5a8.55,8.55,0,0,1,5.88-2.34h126.4a8.55,8.55,0,0,1,5.52,15.08L1054.13,825.68a8.55,8.55,0,0,0-2.38,9.8l109.12,263.37a8.55,8.55,0,0,1-7.9,11.82H1035.19a8.55,8.55,0,0,1-8-5.6L959.06,920a8.55,8.55,0,0,0-13.57-3.56l-53.21,45.3a8.55,8.55,0,0,0-2.83,4.77l-28.62,137.37a8.55,8.55,0,0,1-8.37,6.81H746.53a8.55,8.55,0,0,1-8.37-10.3L865,492.53a8.55,8.55,0,0,1,8.37-6.8Z" transform="translate(680 -485.73)"/><path class="cls-1" d="M1968.56,1110.68a8.55,8.55,0,0,1-8.35-10.41l11.7-52.61h-1.75q-60.4,74.41-158.43,74.4-132.17,0-132.17-120.79a155.7,155.7,0,0,1,1.32-17.94q1.31-10.93,3.5-22.32t4.38-21.44q2.14-9.86,3.87-16c0-.17.09-.33.12-.5l54.53-258.17a8.55,8.55,0,0,1,8.37-6.78h106.84a8.55,8.55,0,0,1,8.37,10.29L1817.93,923a6.93,6.93,0,0,1-.2.76,91.18,91.18,0,0,0-2.94,12.33q-1.31,7.45-2.62,15.32a142.51,142.51,0,0,0-1.75,15.32c-.3,5-.44,8.9-.44,11.81q0,20.15,18.81,33.26t40.7,13.13q28,0,49.45-10.94a121.77,121.77,0,0,0,36.76-28.45,157.37,157.37,0,0,0,25.39-40.26,247.67,247.67,0,0,0,15.32-46.39l49.33-233.92a8.55,8.55,0,0,1,8.37-6.79h106.83a8.55,8.55,0,0,1,8.37,10.3l-91,435.42a8.55,8.55,0,0,1-8.37,6.8Z" transform="translate(680 -485.73)"/><path class="cls-1" d="M2372.66,658.16a8.55,8.55,0,0,1,8.35,10.38l-10,45.64,1.75,1.75q21-36.76,57.33-53.39t78.34-16.63q82.26,0,126.92,48.14T2680,824.46a405.76,405.76,0,0,1-14.88,109.41q-14.89,53.4-45.51,95.4a233.08,233.08,0,0,1-76.59,67.4q-46,25.38-109,25.38a179.43,179.43,0,0,1-39-4.38,153,153,0,0,1-36.76-13.13,120.86,120.86,0,0,1-30.63-22.32,89.58,89.58,0,0,1-20.57-31.95h-2.62l-50.27,251.48a8.55,8.55,0,0,1-8.38,6.87H2139.94a8.55,8.55,0,0,1-8.37-10.27L2262,665a8.55,8.55,0,0,1,8.37-6.83Zm34.25,100.22a159.64,159.64,0,0,0-42.45,47.7,231.12,231.12,0,0,0-25.38,62.58q-8.33,33.7-8.31,62.58,0,44.64,21.88,71.33t67.39,26.7q35.88,0,61.27-18.38a152.89,152.89,0,0,0,42-46.39,217.41,217.41,0,0,0,24.51-61.27q7.88-33.26,7.88-63a129.74,129.74,0,0,0-5.69-38.51,95.48,95.48,0,0,0-16.63-31.95,82.24,82.24,0,0,0-27.57-21.88q-16.64-8.31-38.52-8.31Q2432.29,739.56,2406.91,758.38Z" transform="translate(680 -485.73)"/><polygon class="cls-1" points="2256.07 329.97 2231.95 445.51 1969.76 445.51 1993.88 329.97 2256.07 329.97"/><path class="cls-1" d="M1256.26,1354.53a96.65,96.65,0,0,1,21.77,2.3,46.7,46.7,0,0,1,17.18,7.55,35.22,35.22,0,0,1,11.27,14q4.05,8.76,4.05,21.66a52.32,52.32,0,0,1-4.92,23.08,50.79,50.79,0,0,1-13.35,17.18,60.36,60.36,0,0,1-19.36,10.72,71.49,71.49,0,0,1-23.19,3.72h-38.36a5,5,0,0,0-4.93,4l-10.13,48a5,5,0,0,1-4.93,4h-23.86a5,5,0,0,1-4.93-6.06l30.3-146.16a5,5,0,0,1,4.93-4Zm-8.32,73.52q13.13,0,20.68-6.67t7.55-20.68a20.3,20.3,0,0,0-2.08-9.74,15.07,15.07,0,0,0-5.58-5.91,25,25,0,0,0-7.77-3,44.19,44.19,0,0,0-8.86-.87h-25.21a5,5,0,0,0-4.94,4l-7.56,36.74a5,5,0,0,0,4.94,6.05Z" transform="translate(680 -485.73)"/><path class="cls-1" d="M1321.9,1409.24a93,93,0,0,1,17-30.09,81.08,81.08,0,0,1,26.91-20.68q15.87-7.66,35.56-7.66a91,91,0,0,1,28.66,4.27,55.77,55.77,0,0,1,35.78,33.81q4.92,12.47,4.92,28.88a118.14,118.14,0,0,1-5.69,36.76,95.13,95.13,0,0,1-16.52,30.85,78.22,78.22,0,0,1-26.7,21.12q-15.87,7.76-36.43,7.77-33.27,0-51.32-17.72t-18.05-51.2A109.57,109.57,0,0,1,1321.9,1409.24Zm30.52,51.42a38.18,38.18,0,0,0,6.35,12.8,30.36,30.36,0,0,0,10.94,8.86,36.13,36.13,0,0,0,16.08,3.28q12.69,0,22.1-6a53.35,53.35,0,0,0,15.76-15.54,72.12,72.12,0,0,0,9.52-21.12,86.17,86.17,0,0,0,3.17-22.76,63.48,63.48,0,0,0-1.86-15.65,35.25,35.25,0,0,0-6-12.8,30.2,30.2,0,0,0-10.72-8.75q-6.56-3.28-16.19-3.28-13.13,0-22.86,6a50.83,50.83,0,0,0-16,15.54,71.54,71.54,0,0,0-9.3,21.23,90.08,90.08,0,0,0-3.06,22.86A55,55,0,0,0,1352.43,1460.66Z" transform="translate(680 -485.73)"/><path class="cls-1" d="M1566.76,1354.53q33,0,49.67,15.86t16.63,45a121.85,121.85,0,0,1-5.69,37.85,85.07,85.07,0,0,1-17,30.31,77.37,77.37,0,0,1-28.23,20q-17,7.22-39.5,7.22h-59a5,5,0,0,1-4.93-6.08l30.71-146.16a5,5,0,0,1,4.93-4Zm-22.54,127.36a53.86,53.86,0,0,0,23.3-4.82,49,49,0,0,0,17.07-13.13,58.68,58.68,0,0,0,10.51-19.25,74.3,74.3,0,0,0,3.61-23.42,59.23,59.23,0,0,0-1.86-15.42,31.26,31.26,0,0,0-6-11.93,27.38,27.38,0,0,0-10.61-7.77,40,40,0,0,0-15.65-2.74h-21.74a5,5,0,0,0-4.93,4L1519,1475.79a5,5,0,0,0,4.93,6.09Z" transform="translate(680 -485.73)"/><path class="cls-1" d="M1754.18,1387q-7.77-7.33-20.24-7.33-13.13,0-22.87,6a50.81,50.81,0,0,0-16,15.54,71.32,71.32,0,0,0-9.3,21.23,89.89,89.89,0,0,0-3.06,22.86,55.15,55.15,0,0,0,2.08,15.32,38.26,38.26,0,0,0,6.35,12.8,30.43,30.43,0,0,0,10.94,8.86,36.13,36.13,0,0,0,16.08,3.28,35,35,0,0,0,13.24-2.52,37.84,37.84,0,0,0,11.05-6.78,39.82,39.82,0,0,0,8.09-10,37.12,37.12,0,0,0,3.56-8.31,4.94,4.94,0,0,1,4.78-3.5h23.31a5.08,5.08,0,0,1,4.73,6.85,114,114,0,0,1-10,20.94,72.93,72.93,0,0,1-16,18.49,56.54,56.54,0,0,1-19.69,10.29,83.54,83.54,0,0,1-23.52,3.17q-33.27,0-51.31-17.72t-18.05-51.2a109.57,109.57,0,0,1,5.91-36.11,93,93,0,0,1,17-30.09,81.05,81.05,0,0,1,26.92-20.68q15.86-7.66,35.56-7.66a82,82,0,0,1,25.16,3.72,56.37,56.37,0,0,1,20,11.05,49.15,49.15,0,0,1,13,18.16,57.82,57.82,0,0,1,4.28,19.63,5.1,5.1,0,0,1-5,5.42h-24.43a5,5,0,0,1-5-4.51Q1760.68,1393.17,1754.18,1387Z" transform="translate(680 -485.73)"/><path class="cls-1" d="M1913.85,1358.74l24.36,146.16a5,5,0,0,1-5,5.87h-23.83a5,5,0,0,1-5-4.32l-3.78-26.16a5,5,0,0,0-5-4.32h-51.12a5,5,0,0,0-4.39,2.56l-16.8,29.68a5,5,0,0,1-4.39,2.56h-24.34a5,5,0,0,1-4.34-7.6L1876.46,1357a5,5,0,0,1,4.34-2.48h28.08A5,5,0,0,1,1913.85,1358.74Zm-22.59,91.63a5,5,0,0,0,5-5.66l-7-56.49h-.44l-29.67,54.7a5,5,0,0,0,4.43,7.44Z" transform="translate(680 -485.73)"/><path class="cls-1" d="M1988,1472.8a20.67,20.67,0,0,0,7,8.86,29.75,29.75,0,0,0,10.94,4.71,62.71,62.71,0,0,0,13.79,1.42,43.1,43.1,0,0,0,10.5-1.31,33.52,33.52,0,0,0,9.52-3.94,22.17,22.17,0,0,0,7-6.78,17.93,17.93,0,0,0,2.74-10.06,12.82,12.82,0,0,0-3.5-9.3,30.72,30.72,0,0,0-9.08-6.24,80.31,80.31,0,0,0-12.69-4.6q-7.11-2-14.33-4.15a121.09,121.09,0,0,1-14.45-5.25,49.57,49.57,0,0,1-12.58-7.88,36.26,36.26,0,0,1-9-11.82q-3.39-7-3.39-17.07,0-13.13,5.47-22.32a45.73,45.73,0,0,1,14.22-15,62.9,62.9,0,0,1,19.8-8.53,92.91,92.91,0,0,1,22.43-2.74,90.42,90.42,0,0,1,22.65,2.74,51.19,51.19,0,0,1,18.6,8.86,43.89,43.89,0,0,1,12.69,15.65,47.69,47.69,0,0,1,4.5,17.56,5.1,5.1,0,0,1-5,5.53h-22.5a5.11,5.11,0,0,1-5-4.65,20.62,20.62,0,0,0-1.7-6.4,18.89,18.89,0,0,0-5.91-7.33,24.07,24.07,0,0,0-9.08-4,50.08,50.08,0,0,0-11.16-1.21,49.41,49.41,0,0,0-9.74,1,28.47,28.47,0,0,0-8.86,3.28,18.57,18.57,0,0,0-6.34,6,14,14,0,0,0-1.59,3.42c-2.11,6.71,1,14,6.86,18a38.67,38.67,0,0,0,6.88,3.69,73.76,73.76,0,0,0,12.36,3.94l10.28,2.3a130.66,130.66,0,0,1,16.85,5.58,45.65,45.65,0,0,1,13.24,8.21,34.34,34.34,0,0,1,8.65,12.25q3.06,7.22,3.06,17.72,0,14-5.8,23.85a48.94,48.94,0,0,1-14.88,16,62.2,62.2,0,0,1-20.46,8.86,96.11,96.11,0,0,1-22.54,2.74q-32.82,0-48.91-13.35-14.52-12-15.93-36.58a5.09,5.09,0,0,1,5-5.43H1981a5,5,0,0,1,5,4.79A26.7,26.7,0,0,0,1988,1472.8Z" transform="translate(680 -485.73)"/><path class="cls-1" d="M2107.22,1377.33l4-18.81a5,5,0,0,1,4.93-4h120.12a5,5,0,0,1,4.93,6.09l-4,18.81a5,5,0,0,1-4.93,4h-38.65a5,5,0,0,0-4.93,4l-25,119.34a5,5,0,0,1-4.93,4h-24.28a5,5,0,0,1-4.93-6.07l24.15-115.2a5,5,0,0,0-4.93-6.07h-36.59A5,5,0,0,1,2107.22,1377.33Z" transform="translate(680 -485.73)"/><path d="M675.23,4250.92" transform="translate(680 -485.73)"/></svg>